<svg viewBox="0 0 32 32" xmlns="http://www.w3.org/2000/svg" style="width:50px; fill:#66b036; margin-bottom: 10px;">
<path d="m24.504 7.5039c-2.2578-2.2578-5.2578-3.5039-8.4531-3.5039-6.5859 0-11.949 5.3594-11.949 11.945-0.003907 2.1055 0.54688 4.1602 1.5938 5.9727l-1.6953 6.1914 6.3359-1.6641c1.7422 0.95312 3.7109 1.4531 5.7109 1.457h0.003906c6.5859 0 11.945-5.3594 11.949-11.949 0-3.1914-1.2422-6.1914-3.4961-8.4492zm-8.4531 18.379h-0.003906c-1.7812 0-3.5312-0.48047-5.0547-1.3828l-0.36328-0.21484-3.7617 0.98438 1.0039-3.6641-0.23438-0.375c-0.99609-1.582-1.5195-3.4102-1.5195-5.2852 0-5.4727 4.457-9.9258 9.9375-9.9258 2.6523 0 5.1445 1.0352 7.0195 2.9102 1.875 1.8789 2.9062 4.3711 2.9062 7.0234 0 5.4766-4.457 9.9297-9.9297 9.9297zm5.4453-7.4375c-0.29688-0.14844-1.7656-0.87109-2.0391-0.96875-0.27344-0.10156-0.47266-0.14844-0.67188 0.14844-0.19922 0.30078-0.76953 0.97266-0.94531 1.1719-0.17188 0.19531-0.34766 0.22266-0.64453 0.074219-0.30078-0.14844-1.2617-0.46484-2.4023-1.4844-0.88672-0.78906-1.4883-1.7695-1.6602-2.0664-0.17578-0.30078-0.019532-0.46094 0.12891-0.60938 0.13672-0.13281 0.30078-0.34766 0.44922-0.52344 0.14844-0.17188 0.19922-0.29688 0.30078-0.49609 0.097656-0.19922 0.046875-0.375-0.027344-0.52344-0.074219-0.14844-0.67188-1.6211-0.92188-2.2188-0.24219-0.58203-0.48828-0.5-0.67188-0.51172-0.17188-0.007812-0.37109-0.007812-0.57031-0.007812-0.19922 0-0.52344 0.074218-0.79688 0.375-0.27344 0.29688-1.043 1.0195-1.043 2.4883s1.0703 2.8906 1.2188 3.0898c0.14844 0.19531 2.1055 3.2109 5.1016 4.5039 0.71094 0.30859 1.2656 0.49219 1.6992 0.62891 0.71484 0.22656 1.3672 0.19531 1.8828 0.12109 0.57422-0.085938 1.7656-0.72266 2.0156-1.4219 0.24609-0.69531 0.24609-1.293 0.17188-1.418-0.074219-0.125-0.27344-0.19922-0.57422-0.35156z" fill-rule="evenodd"></path>
</svg>